# xmcd
#
# Track frame offsets:
#	150
#	2839
#	15644
#	21791
#	32754
#	37381
#	42478
#	52577
#	65090
#	72099
#	79300
#	88135
#	90272
#	116756
#	121781
#	132186
#	142389
#	156230
#	162076
#	163615
#	173416
#	180935
#	185715
#
# Disc length: 2792 seconds
#
# Revision: 5
# Processed by: cddbd v1.5.2PL0 Copyright (c) Steve Scherf et al.
# Submitted via: EasyCDDAExtractor 12.0.1.1
#
DISCID=310ae617
DTITLE=Doors - An American Prayer (Jim Morrison)
DYEAR=1978
DGENRE=Blues
TTITLE0=Awake
TTITLE1=Ghost Song
TTITLE2=Dawn's Highway
TTITLE3=Newborn Awakening
TTITLE4=To Come Of Age
TTITLE5=Black Polished Chrome
TTITLE6=Latino Chrome
TTITLE7=Angels And Sailors
TTITLE8=Stoned Immaculate
TTITLE9=The Movie
TTITLE10=Curses, Invocation
TTITLE11=American Night
TTITLE12=Roadhouse Blues
TTITLE13=The World On Fire
TTITLE14=Lament
TTITLE15=The Hitchhiker
TTITLE16=An American Prayer
TTITLE17=Hour For Magic
TTITLE18=Freedom Exists
TTITLE19=A Feast Of Friends
TTITLE20=Babylon Fading
TTITLE21=Bird Of Prey
TTITLE22=The Ghost Song
EXTD=
EXTT0=
EXTT1=
EXTT2=
EXTT3=
EXTT4=
EXTT5=
EXTT6=
EXTT7=
EXTT8=
EXTT9=
EXTT10=
EXTT11=
EXTT12=
EXTT13=
EXTT14=
EXTT15=
EXTT16=
EXTT17=
EXTT18=
EXTT19=
EXTT20=
EXTT21=
EXTT22=
PLAYORDER=
